<?xml version="1.0" standalone="no"?>
<!DOCTYPE svg PUBLIC "-//W3C//DTD SVG 20010904//EN"
 "http://www.w3.org/TR/2001/REC-SVG-20010904/DTD/svg10.dtd">
<svg version="1.0" xmlns="http://www.w3.org/2000/svg"
 width="2560.000000pt" height="318.000000pt" viewBox="0 0 2560.000000 318.000000"
 preserveAspectRatio="xMidYMid meet">
<metadata>
Created by potrace 1.16, written by Peter Selinger 2001-2019
</metadata>
<g transform="translate(0.000000,318.000000) scale(0.100000,-0.100000)"
fill="#000000" stroke="none">
<path d="M1508 3153 c-58 -63 -161 -265 -223 -439 -154 -424 -161 -896 -19
-1333 47 -144 618 -1299 655 -1325 21 -14 86 -16 592 -16 l569 0 29 29 c21 21
29 39 29 64 0 26 -185 406 -741 1519 -408 815 -751 1493 -762 1506 -31 33 -95
31 -129 -5z"/>
<path d="M14866 2660 c-436 -50 -705 -241 -787 -557 -24 -97 -27 -302 -4 -408
23 -107 82 -220 156 -299 142 -153 320 -237 665 -315 372 -84 473 -127 510
-218 29 -69 12 -165 -37 -210 -147 -135 -683 -91 -1115 92 -60 26 -128 58
-151 71 -23 13 -46 24 -52 24 -8 0 -11 -97 -11 -314 l0 -314 103 -45 c268
-117 532 -167 886 -167 286 0 463 33 640 121 87 43 118 65 181 128 122 123
180 256 201 464 25 244 -24 429 -148 567 -133 147 -321 233 -733 334 -118 29
-251 67 -296 85 -166 64 -227 162 -175 277 23 50 64 81 142 105 214 67 637 2
992 -152 50 -21 92 -39 94 -39 2 0 2 136 1 302 l-3 302 -80 34 c-105 44 -263
88 -405 113 -132 23 -444 34 -574 19z"/>
<path d="M17360 2659 c-270 -30 -490 -125 -624 -270 -70 -75 -108 -141 -143
-244 -25 -74 -27 -93 -28 -245 0 -127 4 -180 18 -230 67 -249 251 -418 572
-525 44 -15 174 -49 290 -75 256 -58 363 -97 424 -155 42 -39 45 -46 49 -103
6 -78 -1 -104 -38 -146 -80 -91 -283 -115 -595 -70 -214 31 -402 89 -604 185
-68 32 -128 59 -132 59 -5 0 -9 -141 -9 -314 l0 -313 58 -26 c182 -82 343
-130 547 -164 88 -14 165 -18 380 -18 242 1 281 3 373 23 355 78 557 248 633
537 30 109 33 367 6 465 -32 117 -73 188 -161 275 -67 67 -100 90 -191 137
-129 65 -272 114 -480 163 -288 69 -426 122 -480 187 -77 92 -47 212 68 267
211 102 649 41 1100 -153 l37 -16 0 303 0 303 -92 36 c-230 90 -431 128 -703
133 -104 2 -228 -1 -275 -6z"/>
<path d="M5271 2608 c-26 -72 -891 -2558 -891 -2562 0 -3 157 -6 350 -6 l349
0 9 33 c20 70 115 392 116 393 0 1 48 -9 106 -22 163 -37 344 -50 503 -36 118
11 284 40 328 57 18 7 17 9 100 -277 l43 -148 348 0 c191 0 348 3 348 8 0 4
-202 585 -449 1292 l-449 1285 -401 3 -401 2 -9 -22z m572 -1066 c86 -295 157
-540 157 -544 0 -4 -35 -15 -77 -25 -110 -25 -376 -25 -485 0 -43 10 -78 21
-78 25 -1 15 315 1082 320 1082 3 0 76 -242 163 -538z"/>
<path d="M6950 2345 l0 -285 335 0 335 0 0 -1010 0 -1010 305 0 305 0 0 1010
0 1010 360 0 360 0 0 285 0 285 -1000 0 -1000 0 0 -285z"/>
<path d="M9390 1335 l0 -1295 623 0 623 0 95 272 c51 149 96 275 97 280 2 4
-183 8 -412 8 l-416 0 0 1015 0 1015 -305 0 -305 0 0 -1295z"/>
<path d="M11947 2588 c-42 -123 -877 -2517 -883 -2531 -6 -16 19 -17 345 -17
l350 0 14 48 c8 26 36 121 62 212 27 91 49 166 49 166 1 1 48 -9 105 -22 144
-32 323 -48 456 -40 107 7 298 36 362 55 l33 9 18 -61 c10 -34 38 -131 62
-214 l44 -153 348 0 c191 0 348 3 348 7 0 4 -201 587 -447 1295 l-448 1288
-402 0 -401 0 -15 -42z m587 -1073 c147 -498 152 -520 133 -528 -105 -40 -408
-47 -554 -13 -40 10 -73 19 -73 22 0 3 254 869 302 1029 20 67 21 69 29 40 5
-16 78 -264 163 -550z"/>
<path d="M19250 1335 l0 -1295 305 0 305 0 0 1295 0 1295 -305 0 -305 0 0
-1295z"/>
<path d="M21215 2618 c-32 -87 -895 -2570 -895 -2573 0 -3 157 -5 348 -5 l349
0 62 212 c34 117 63 213 64 214 1 2 27 -4 57 -12 167 -44 399 -62 570 -45 105
11 272 41 311 56 12 4 18 -4 27 -32 6 -21 34 -118 63 -215 l52 -178 349 0 349
0 -7 23 c-4 12 -206 594 -449 1292 l-442 1270 -402 3 c-316 2 -403 0 -406 -10z
m569 -1079 c124 -419 157 -542 147 -549 -60 -37 -420 -48 -553 -17 -43 10 -78
21 -78 25 0 15 315 1082 320 1082 3 0 77 -243 164 -541z"/>
<path d="M23340 1335 l0 -1295 280 0 280 0 2 972 3 972 108 -246 c83 -186 202
-419 497 -969 l389 -724 351 -3 350 -2 0 1295 0 1295 -280 0 -280 0 -2 -812
-3 -812 -99 229 c-71 167 -183 390 -405 810 l-307 580 -442 3 -442 2 0 -1295z"/>
<path d="M807 1759 c-10 -6 -195 -366 -412 -800 -429 -856 -423 -842 -370
-894 l24 -25 579 0 579 0 21 23 c28 29 55 92 85 197 122 419 0 997 -288 1370
-89 114 -118 140 -161 140 -21 0 -47 -5 -57 -11z"/>
</g>
</svg>
