<?xml version="1.0" standalone="no"?>
<!DOCTYPE svg PUBLIC "-//W3C//DTD SVG 20010904//EN"
 "http://www.w3.org/TR/2001/REC-SVG-20010904/DTD/svg10.dtd">
<svg version="1.0" xmlns="http://www.w3.org/2000/svg"
 width="560.000000pt" height="160.000000pt" viewBox="0 0 560.000000 160.000000"
 preserveAspectRatio="xMidYMid meet">
<metadata>
Created by potrace 1.16, written by Peter Selinger 2001-2019
</metadata>
<g transform="translate(0.000000,160.000000) scale(0.100000,-0.100000)"
fill="#000000" stroke="none">
<path d="M0 800 l0 -800 800 0 800 0 0 800 0 800 -800 0 -800 0 0 -800z m926
426 c28 -9 66 -26 85 -39 82 -55 108 -181 55 -271 -15 -25 -30 -46 -34 -46 -4
0 -18 -9 -31 -19 l-25 -19 40 -20 c21 -11 51 -33 66 -49 92 -97 72 -269 -40
-343 -81 -53 -122 -60 -369 -60 l-223 0 0 446 0 447 213 -6 c154 -3 226 -9
263 -21z"/>
<path d="M630 985 l0 -115 90 0 c144 0 200 35 200 125 0 83 -39 105 -185 105
l-105 0 0 -115z"/>
<path d="M630 615 l0 -127 129 4 c113 3 133 6 158 24 66 49 62 158 -7 199 -29
16 -56 21 -157 24 l-123 3 0 -127z"/>
<path d="M2000 800 l0 -800 800 0 800 0 0 800 0 800 -800 0 -800 0 0 -800z
m926 426 c28 -9 66 -26 85 -39 82 -55 108 -181 55 -271 -15 -25 -30 -46 -34
-46 -4 0 -18 -9 -31 -19 l-25 -19 40 -20 c21 -11 51 -33 66 -49 92 -97 72
-269 -40 -343 -81 -53 -122 -60 -369 -60 l-223 0 0 446 0 447 213 -6 c154 -3
226 -9 263 -21z"/>
<path d="M2630 985 l0 -115 90 0 c144 0 200 35 200 125 0 83 -39 105 -185 105
l-105 0 0 -115z"/>
<path d="M2630 615 l0 -127 129 4 c113 3 133 6 158 24 66 49 62 158 -7 199
-29 16 -56 21 -157 24 l-123 3 0 -127z"/>
<path d="M4000 800 l0 -800 800 0 800 0 0 800 0 800 -800 0 -800 0 0 -800z
m952 450 c36 -5 92 -19 122 -31 l56 -20 0 -79 0 -78 -62 26 c-55 23 -77 26
-168 26 -116 0 -154 -12 -214 -64 -59 -53 -80 -110 -81 -225 0 -84 4 -108 23
-151 28 -63 62 -96 123 -123 94 -42 231 -36 345 14 l54 24 0 -79 0 -79 -57
-21 c-32 -12 -83 -26 -113 -32 -74 -14 -233 -5 -295 16 -122 42 -218 142 -256
269 -17 56 -20 88 -17 180 3 101 7 119 35 179 58 123 167 212 293 237 112 22
127 23 212 11z"/>
</g>
</svg>
