<?xml version="1.0" standalone="no"?>
<!DOCTYPE svg PUBLIC "-//W3C//DTD SVG 20010904//EN"
 "http://www.w3.org/TR/2001/REC-SVG-20010904/DTD/svg10.dtd">
<svg version="1.0" xmlns="http://www.w3.org/2000/svg"
 width="2400.000000pt" height="811.000000pt" viewBox="0 0 2400.000000 811.000000"
 preserveAspectRatio="xMidYMid meet">
<metadata>
Created by potrace 1.16, written by Peter Selinger 2001-2019
</metadata>
<g transform="translate(0.000000,811.000000) scale(0.100000,-0.100000)"
fill="#000000" stroke="none">
<path d="M3650 7739 c-1350 -96 -2458 -1152 -2611 -2489 -17 -153 -15 -469 5
-625 105 -811 551 -1523 1242 -1983 339 -225 726 -376 1141 -443 184 -30 562
-37 772 -15 566 60 1021 249 1416 588 472 405 720 874 822 1553 23 153 24 651
2 785 l-14 85 -1287 3 -1288 2 0 -385 0 -385 910 0 909 0 -5 -32 c-90 -503
-239 -779 -564 -1044 -250 -203 -540 -332 -880 -389 -152 -26 -449 -31 -610
-10 -855 108 -1533 739 -1704 1587 -74 363 -52 723 64 1070 217 650 742 1138
1400 1303 303 76 652 78 962 6 295 -69 584 -221 834 -437 l60 -53 273 273 272
273 -59 54 c-250 232 -597 445 -907 557 -224 82 -482 133 -757 152 -161 11
-232 11 -398 -1z"/>
<path d="M18430 4910 l0 -2630 385 0 385 0 0 2630 0 2630 -385 0 -385 0 0
-2630z"/>
<path d="M8295 5745 c-489 -74 -901 -315 -1186 -694 -229 -304 -349 -678 -349
-1086 0 -873 573 -1581 1424 -1761 167 -35 467 -44 636 -20 607 89 1092 432
1356 959 288 574 246 1304 -107 1832 -272 406 -674 666 -1181 761 -116 22
-473 28 -593 9z m380 -706 c288 -35 545 -196 709 -442 285 -429 233 -1050
-118 -1410 -389 -399 -1002 -405 -1392 -13 -44 44 -100 110 -124 145 -62 93
-127 237 -157 348 -24 89 -27 115 -27 293 -1 171 2 206 22 283 50 198 132 351
259 487 187 199 429 309 703 319 19 0 76 -4 125 -10z"/>
<path d="M12210 5749 c-435 -56 -818 -251 -1103 -560 -374 -405 -537 -983
-438 -1549 138 -788 747 -1361 1554 -1461 145 -17 443 -7 581 21 742 148 1290
705 1417 1440 68 398 10 803 -166 1155 -266 530 -771 879 -1385 955 -97 12
-365 11 -460 -1z m340 -709 c529 -65 900 -510 900 -1078 0 -529 -331 -955
-826 -1063 -88 -19 -283 -17 -379 5 -480 109 -805 537 -805 1061 0 235 67 463
191 647 96 143 271 287 427 353 172 72 326 95 492 75z"/>
<path d="M16006 5744 c-487 -76 -936 -379 -1208 -816 -378 -609 -366 -1389 30
-1979 261 -387 653 -654 1100 -750 124 -26 385 -37 503 -20 272 39 512 150
692 320 41 39 77 71 81 71 10 0 7 -359 -4 -450 -16 -126 -55 -263 -105 -366
-152 -313 -433 -475 -830 -475 -196 0 -347 43 -503 144 -143 92 -275 241 -360
405 -24 45 -45 82 -48 82 -3 0 -158 -64 -345 -141 -216 -90 -339 -147 -339
-155 0 -26 88 -190 159 -295 313 -466 795 -734 1356 -756 892 -34 1523 426
1718 1252 64 268 61 170 64 2088 l4 1747 -381 0 -380 0 0 -145 c0 -80 -3 -145
-7 -145 -5 1 -37 30 -73 66 -159 160 -402 277 -665 319 -111 18 -339 18 -459
-1z m518 -724 c175 -44 315 -129 447 -268 125 -132 215 -299 259 -482 116
-487 -51 -986 -414 -1233 -175 -118 -401 -173 -607 -147 -228 29 -412 120
-574 284 -96 97 -165 198 -217 317 -217 504 -55 1107 374 1393 131 86 257 135
410 156 85 12 235 3 322 -20z"/>
<path d="M21015 5753 c-192 -25 -374 -80 -550 -168 -168 -84 -294 -174 -425
-305 -157 -157 -271 -326 -361 -536 -117 -275 -168 -583 -148 -907 51 -827
615 -1476 1424 -1637 139 -28 428 -38 572 -21 410 51 760 220 1049 506 84 84
201 222 224 265 9 18 -20 40 -287 218 -164 109 -303 201 -310 205 -7 4 -36
-25 -77 -77 -149 -191 -335 -320 -538 -376 -201 -54 -429 -48 -618 18 -200 70
-374 220 -489 423 l-31 56 47 21 c27 11 561 232 1188 492 627 259 1144 476
1149 480 14 14 -130 359 -202 486 -275 483 -694 785 -1186 853 -72 10 -363 13
-431 4z m445 -718 c36 -9 107 -37 159 -62 77 -37 108 -59 170 -122 65 -65 124
-153 110 -165 -2 -1 -344 -144 -759 -316 -415 -172 -770 -320 -789 -327 l-34
-15 6 114 c22 437 338 804 777 903 81 18 268 13 360 -10z"/>
</g>
</svg>
