<?xml version="1.0" standalone="no"?>
<!DOCTYPE svg PUBLIC "-//W3C//DTD SVG 20010904//EN"
 "http://www.w3.org/TR/2001/REC-SVG-20010904/DTD/svg10.dtd">
<svg version="1.0" xmlns="http://www.w3.org/2000/svg"
 width="1200.000000pt" height="358.000000pt" viewBox="0 0 1200.000000 358.000000"
 preserveAspectRatio="xMidYMid meet">
<metadata>
Created by potrace 1.16, written by Peter Selinger 2001-2019
</metadata>
<g transform="translate(0.000000,358.000000) scale(0.100000,-0.100000)"
fill="#000000" stroke="none">
<path d="M4553 3490 c-64 -22 -98 -46 -148 -101 -63 -70 -80 -119 -80 -234 0
-87 3 -107 26 -155 14 -30 45 -75 68 -98 169 -173 464 -126 571 91 97 198 -6
440 -213 502 -68 20 -161 18 -224 -5z"/>
<path d="M10623 3492 c-123 -44 -208 -147 -233 -280 -35 -195 98 -380 296
-412 157 -26 311 55 382 200 24 49 27 66 27 155 0 86 -4 107 -25 150 -31 65
-111 144 -175 175 -69 32 -198 38 -272 12z"/>
<path d="M2355 2540 c-225 -59 -400 -186 -508 -370 l-27 -45 0 188 0 187 -285
0 -285 0 0 -1180 0 -1180 300 0 300 0 0 678 c1 728 3 761 53 893 44 116 112
206 203 270 169 117 432 110 562 -14 80 -77 133 -207 151 -369 7 -60 11 -361
11 -778 l0 -680 295 0 296 0 -3 843 -3 842 -27 96 c-95 349 -312 561 -636 625
-106 20 -309 18 -397 -6z"/>
<path d="M70 1320 l0 -1180 295 0 295 0 0 1180 0 1180 -295 0 -295 0 0 -1180z"/>
<path d="M3710 2235 l0 -265 330 0 330 0 0 -915 0 -915 300 0 300 0 0 915 0
915 325 0 325 0 0 265 0 265 -955 0 -955 0 0 -265z"/>
<path d="M6020 1743 c0 -433 5 -799 10 -853 42 -392 243 -669 559 -771 401
-129 828 20 1011 352 l30 54 0 -192 0 -193 280 0 280 0 0 1180 0 1180 -294 0
-295 0 -3 -707 c-4 -686 -5 -710 -25 -784 -44 -156 -133 -289 -241 -358 -141
-90 -337 -104 -475 -34 -98 49 -167 148 -210 302 -21 74 -21 94 -25 829 l-3
752 -299 0 -300 0 0 -757z"/>
<path d="M8780 1320 l0 -1180 300 0 300 0 0 1180 0 1180 -300 0 -300 0 0
-1180z"/>
<path d="M9780 2235 l0 -265 330 0 330 0 0 -915 0 -915 295 0 295 0 0 915 0
915 330 0 330 0 0 265 0 265 -955 0 -955 0 0 -265z"/>
<path d="M11672 449 c-62 -31 -86 -70 -90 -149 -3 -55 0 -70 20 -100 51 -75
146 -102 232 -66 49 20 88 77 94 136 6 65 -2 93 -40 136 -58 66 -137 82 -216
43z m156 -46 c36 -22 62 -73 62 -120 0 -33 -7 -50 -30 -77 -58 -66 -144 -70
-203 -10 -112 112 37 293 171 207z"/>
<path d="M11680 290 l0 -100 25 0 c23 0 25 4 25 40 0 22 4 40 8 40 5 0 17 -18
27 -40 15 -33 23 -40 47 -40 34 0 34 1 4 48 -23 37 -23 39 -5 50 23 15 25 64
3 86 -10 11 -34 16 -75 16 l-59 0 0 -100z"/>
</g>
</svg>
