<?xml version="1.0" standalone="no"?>
<!DOCTYPE svg PUBLIC "-//W3C//DTD SVG 20010904//EN"
 "http://www.w3.org/TR/2001/REC-SVG-20010904/DTD/svg10.dtd">
<svg version="1.0" xmlns="http://www.w3.org/2000/svg"
 width="3840.000000pt" height="2160.000000pt" viewBox="0 0 3840.000000 2160.000000"
 preserveAspectRatio="xMidYMid meet">
<metadata>
Created by potrace 1.16, written by Peter Selinger 2001-2019
</metadata>
<g transform="translate(0.000000,2160.000000) scale(0.100000,-0.100000)"
fill="#000000" stroke="none">
<path d="M4530 15909 c-566 -73 -1271 -464 -2035 -1129 -167 -146 -667 -646
-814 -815 -490 -562 -863 -1099 -1122 -1615 -244 -487 -359 -883 -359 -1234 0
-267 74 -488 217 -644 26 -29 129 -122 228 -206 99 -84 179 -159 179 -167 -1
-8 -14 -54 -28 -104 -50 -168 -61 -254 -60 -470 0 -166 4 -217 22 -302 101
-468 420 -867 879 -1096 176 -89 430 -157 584 -157 l54 0 72 -148 c408 -838
1118 -1482 2023 -1835 1030 -401 2293 -396 3310 15 615 249 1132 640 1510
1143 326 434 519 876 616 1410 25 140 26 444 2 533 -52 186 -169 323 -303 353
l-51 11 -33 117 c-19 64 -53 167 -77 230 l-43 114 20 28 c11 16 36 62 55 103
96 208 98 437 8 635 -126 274 -400 449 -938 602 -77 21 -142 42 -145 45 -3 3
-7 63 -9 132 -6 312 -23 671 -38 774 -50 359 -200 712 -390 917 l-56 61 81 88
c249 271 467 604 576 881 20 51 51 146 68 210 29 109 31 128 31 301 1 213 -8
258 -79 406 -51 105 -158 228 -258 296 -145 99 -354 171 -570 198 -125 16
-485 7 -620 -14 -340 -55 -671 -157 -1061 -325 l-139 -60 -271 268 c-149 147
-291 281 -316 298 -59 40 -172 96 -235 116 -130 42 -325 57 -485 36z m384
-389 c56 -17 133 -77 260 -204 138 -138 286 -300 286 -313 0 -5 -48 -38 -107
-73 -553 -324 -1220 -807 -1688 -1221 -134 -119 -418 -407 -541 -549 -506
-586 -918 -1270 -1225 -2035 l-68 -170 -48 -13 c-222 -61 -375 -134 -526 -249
-73 -56 -186 -169 -229 -230 l-31 -42 -61 52 c-142 121 -276 260 -300 311
-106 225 -80 569 76 986 224 598 672 1309 1228 1945 139 160 482 508 650 659
710 642 1430 1064 1965 1151 100 16 295 13 359 -5z m1159 -1459 c-87 -83 -118
-124 -108 -141 3 -5 27 -10 54 -10 79 0 271 -29 397 -59 235 -58 504 -166 504
-202 0 -13 -4 -13 -220 25 -80 13 -194 30 -255 36 -146 15 -532 21 -674 9
-642 -51 -1405 -317 -1877 -655 -35 -24 -65 -44 -68 -44 -22 0 10 43 123 165
306 333 725 669 1063 854 43 24 81 40 86 37 5 -3 -9 -40 -30 -83 -65 -133 -95
-243 -67 -243 6 0 49 23 95 51 278 167 677 307 964 337 41 5 79 6 83 4 5 -2
-27 -39 -70 -81z m1500 -1311 c69 -26 158 -108 201 -185 58 -105 105 -287 121
-470 3 -38 14 -246 25 -461 20 -399 28 -471 61 -536 37 -72 67 -87 349 -169
519 -151 710 -277 750 -497 41 -230 -158 -496 -542 -725 -433 -258 -984 -425
-1591 -483 -211 -20 -675 -14 -857 10 -160 22 -247 21 -322 -5 -130 -43 -221
-127 -288 -264 -91 -186 -91 -391 1 -582 116 -242 414 -409 874 -490 139 -24
542 -24 745 1 652 78 1244 313 1650 654 132 111 236 232 228 267 -2 13 -16 8
-68 -26 -376 -244 -874 -462 -1300 -569 -301 -76 -520 -103 -815 -104 -418 0
-726 65 -920 195 -111 74 -177 162 -192 253 l-6 36 41 -14 c68 -24 341 -84
467 -103 185 -27 578 -24 745 5 123 21 268 59 336 87 40 16 53 41 33 61 -12
11 -30 12 -99 4 -347 -37 -803 -11 -1147 66 -108 24 -343 90 -352 99 -7 8 20
69 45 103 15 19 48 44 73 55 59 27 173 28 361 1 109 -15 193 -19 440 -19 353
0 543 17 865 76 562 103 1126 341 1531 646 l31 23 38 -97 c38 -99 115 -385
115 -427 0 -22 5 -24 71 -28 118 -9 176 -65 200 -193 22 -120 -29 -395 -118
-630 -155 -414 -508 -839 -928 -1120 -55 -37 -194 -113 -310 -171 -305 -150
-581 -238 -915 -291 -166 -26 -637 -26 -795 0 -463 77 -827 240 -1130 505
-406 355 -622 906 -576 1476 36 457 191 833 470 1140 35 39 66 84 72 106 11
35 9 44 -14 92 -15 29 -53 83 -84 119 -209 239 -263 305 -324 397 -187 280
-257 560 -218 877 32 261 144 482 338 667 140 134 294 218 465 255 87 18 340
13 576 -13 189 -20 462 -23 545 -5 196 41 328 108 530 271 50 40 110 84 135
98 108 64 267 77 383 32z m-5289 -2176 c168 -42 294 -113 417 -234 130 -128
206 -253 268 -440 57 -170 74 -296 75 -550 0 -197 -3 -238 -22 -329 -46 -208
-114 -343 -237 -466 -143 -144 -285 -198 -515 -198 -173 0 -283 28 -455 112
-358 176 -607 481 -680 836 -21 104 -22 339 -1 457 36 199 125 381 255 520
148 158 310 244 566 301 53 12 271 6 329 -9z"/>
<path d="M7360 11843 c-21 -11 -45 -36 -60 -63 -22 -40 -25 -56 -24 -145 3
-170 60 -392 132 -505 l27 -43 113 -1 112 -1 13 35 c7 22 12 88 12 175 -1 120
-5 156 -29 250 -35 140 -85 246 -132 281 -45 35 -115 42 -164 17z"/>
<path d="M5715 11185 c-135 -30 -250 -89 -336 -174 -61 -59 -80 -101 -59 -126
19 -23 59 -18 183 19 163 50 254 66 364 66 123 0 191 -16 365 -86 77 -30 149
-54 161 -52 17 2 23 11 25 37 7 70 -108 191 -251 263 -127 64 -308 85 -452 53z"/>
<path d="M7565 10846 c-39 -17 -64 -46 -81 -93 -29 -82 -12 -174 42 -228 89
-90 214 -5 214 146 -1 126 -89 214 -175 175z"/>
<path d="M5943 10765 c-133 -37 -243 -125 -243 -193 0 -44 31 -44 152 -4 l113
37 195 0 c107 0 201 4 208 8 35 23 -22 92 -110 133 -54 24 -78 29 -163 31 -66
2 -118 -2 -152 -12z"/>
<path d="M6964 10591 c-91 -55 -53 -190 71 -247 93 -44 189 -22 224 50 27 58
-31 160 -114 197 -54 25 -141 25 -181 0z"/>
<path d="M1961 10199 c-25 -5 -78 -24 -119 -44 -103 -49 -177 -126 -237 -247
-93 -190 -98 -408 -8 -408 41 0 69 34 108 136 52 133 88 182 164 222 180 93
391 -15 417 -214 5 -42 0 -72 -24 -155 -60 -201 -64 -298 -21 -415 25 -66 85
-136 144 -167 61 -32 174 -31 240 4 48 24 95 77 95 105 0 25 -40 56 -63 50
-62 -17 -133 -17 -167 1 -82 43 -94 138 -35 280 74 176 97 261 98 358 2 110
-17 177 -72 263 -119 183 -317 271 -520 231z"/>
<path d="M19956 12889 c-282 -41 -498 -193 -537 -377 -28 -136 47 -279 201
-382 57 -38 179 -86 273 -106 96 -21 309 -22 403 -1 220 49 382 155 450 293
40 82 41 183 2 267 -51 109 -184 212 -345 268 -121 42 -311 58 -447 38z"/>
<path d="M29100 12889 c-85 -13 -231 -62 -298 -101 -80 -46 -164 -128 -197
-195 -26 -51 -30 -69 -30 -143 0 -78 3 -90 34 -148 132 -243 548 -362 912
-261 180 50 343 173 388 294 32 85 26 189 -14 264 -66 120 -226 227 -405 271
-100 24 -294 34 -390 19z"/>
<path d="M21010 10875 l0 -1995 560 0 560 0 -2 1993 -3 1992 -557 3 -558 2 0
-1995z"/>
<path d="M25435 12858 c-3 -7 -4 -904 -3 -1993 l3 -1980 558 -3 557 -2 0 782
c0 832 4 903 50 1066 49 173 148 306 250 336 67 20 103 20 168 1 98 -29 154
-103 188 -246 16 -67 18 -162 21 -1006 l4 -933 555 0 554 0 0 939 c0 585 -4
988 -11 1068 -45 543 -213 873 -521 1022 -158 77 -245 95 -463 96 -159 0 -189
-3 -260 -23 -298 -86 -514 -294 -690 -667 -84 -177 -118 -216 -145 -165 -12
23 -2 74 53 250 135 440 187 1133 106 1433 l-10 37 -480 0 c-374 0 -481 -3
-484 -12z"/>
<path d="M12924 11995 c-146 -32 -265 -97 -379 -210 -124 -122 -221 -281 -325
-533 -45 -108 -65 -131 -101 -111 -26 13 -23 39 20 192 16 56 34 136 42 177
14 83 18 309 6 383 l-8 47 -410 0 -409 0 0 -1530 0 -1530 555 0 555 0 0 758
c0 433 4 803 10 864 32 338 172 578 336 578 113 0 204 -61 242 -162 39 -105
42 -176 42 -1124 l0 -914 565 0 565 0 0 819 c0 896 0 897 60 1084 48 151 134
263 220 287 114 32 232 -28 286 -145 57 -126 57 -119 61 -1122 l4 -923 550 0
549 0 0 944 c0 1102 -5 1204 -74 1462 -56 209 -145 363 -282 493 -70 66 -105
91 -187 131 -142 68 -239 91 -418 97 -114 4 -163 2 -229 -11 -314 -64 -546
-293 -710 -700 -59 -147 -84 -180 -112 -152 -10 9 -18 46 -22 98 -39 476 -356
770 -826 767 -63 0 -143 -7 -176 -14z"/>
<path d="M17595 12004 c-16 -2 -79 -9 -140 -15 -312 -31 -713 -133 -982 -251
l-93 -40 0 -459 c0 -303 3 -459 10 -459 6 0 72 31 148 69 424 211 831 323
1122 308 271 -14 406 -126 413 -339 1 -36 -1 -69 -4 -72 -3 -3 -30 -1 -60 4
-91 17 -541 24 -674 11 -689 -66 -1071 -388 -1126 -948 -21 -211 19 -415 113
-577 49 -85 188 -226 270 -274 80 -47 201 -98 294 -124 69 -19 104 -22 274
-22 180 0 203 2 295 27 192 52 364 154 495 293 98 104 158 202 225 369 59 148
61 150 93 153 38 4 35 28 33 -238 -2 -203 8 -351 31 -475 l11 -65 424 0 424 0
-4 903 c-4 981 -5 992 -64 1242 -70 296 -170 486 -347 660 -156 153 -327 242
-566 292 -100 22 -146 25 -350 28 -129 2 -248 1 -265 -1z m453 -1890 c28 -4
32 -8 27 -27 -15 -53 -72 -151 -130 -225 -151 -190 -354 -293 -551 -279 -152
11 -223 89 -212 231 15 180 174 284 468 305 101 7 343 4 398 -5z"/>
<path d="M23720 11999 c-374 -48 -669 -184 -895 -413 -246 -247 -373 -554
-407 -981 -20 -255 16 -572 92 -806 182 -556 619 -906 1223 -980 144 -17 433
-7 572 21 239 47 520 164 690 287 l80 58 3 514 2 513 -62 -37 c-120 -69 -343
-175 -433 -205 -266 -88 -533 -111 -765 -66 -255 49 -418 185 -461 387 -6 28
-9 93 -7 143 6 122 43 204 137 296 147 145 368 211 656 197 270 -14 553 -96
823 -238 l112 -59 -2 537 -3 537 -48 36 c-158 120 -455 219 -763 255 -137 16
-434 18 -544 4z"/>
<path d="M31742 11995 c-142 -33 -277 -109 -384 -218 -113 -115 -198 -252
-294 -476 -35 -80 -72 -152 -82 -159 -21 -14 -48 -8 -56 14 -3 8 12 83 34 167
21 83 44 195 51 247 11 91 7 298 -7 348 l-6 22 -409 0 -409 0 0 -1530 0 -1530
560 0 559 0 3 858 3 857 28 100 c37 138 95 254 155 314 71 71 138 86 240 56
65 -20 106 -55 138 -117 57 -112 57 -111 61 -1130 l4 -938 560 0 559 0 0 808
c0 858 2 889 50 1057 24 86 79 197 120 247 17 20 55 49 86 64 46 23 63 26 110
21 95 -10 174 -74 212 -172 46 -119 46 -106 49 -1092 l4 -933 549 0 550 0 0
973 c0 574 -4 1017 -10 1082 -55 597 -291 938 -728 1047 -73 19 -116 22 -262
23 -156 0 -183 -3 -250 -23 -297 -93 -506 -319 -655 -706 -42 -109 -71 -151
-97 -141 -19 8 -25 29 -34 140 -12 142 -72 311 -154 430 -85 124 -247 233
-408 277 -101 27 -347 34 -440 13z"/>
<path d="M36807 12000 c-193 -33 -383 -135 -523 -282 -114 -120 -197 -250
-283 -447 -52 -119 -74 -147 -105 -135 -23 9 -20 66 8 161 50 167 60 239 61
418 0 94 -3 182 -8 198 l-7 27 -410 0 -410 0 0 -1955 0 -1955 560 0 560 0 0
612 0 613 35 -52 c165 -245 433 -393 715 -393 169 0 375 47 512 116 296 149
509 445 613 849 59 228 70 327 70 635 0 328 -16 463 -82 694 -125 438 -402
748 -763 856 -154 46 -400 64 -543 40z m-42 -935 c118 -31 190 -96 249 -227
60 -132 86 -290 86 -531 0 -521 -129 -757 -415 -761 -103 -1 -170 29 -247 112
-121 131 -185 327 -195 597 -9 225 23 397 102 561 66 136 147 218 248 250 57
17 101 17 172 -1z"/>
<path d="M19540 10410 l0 -1530 560 0 560 0 0 1530 0 1530 -37 -16 c-116 -49
-262 -81 -415 -90 -97 -6 -119 -3 -363 45 -143 28 -270 54 -282 56 l-23 5 0
-1530z"/>
<path d="M28700 10410 l0 -1530 555 0 555 0 0 1530 0 1531 -27 -15 c-104 -53
-340 -96 -528 -96 -188 0 -424 43 -527 96 l-28 15 0 -1531z"/>
</g>
</svg>
