<?xml version="1.0" standalone="no"?>
<!DOCTYPE svg PUBLIC "-//W3C//DTD SVG 20010904//EN"
 "http://www.w3.org/TR/2001/REC-SVG-20010904/DTD/svg10.dtd">
<svg version="1.0" xmlns="http://www.w3.org/2000/svg"
 width="3840.000000pt" height="2160.000000pt" viewBox="0 0 3840.000000 2160.000000"
 preserveAspectRatio="xMidYMid meet">
<metadata>
Created by potrace 1.16, written by Peter Selinger 2001-2019
</metadata>
<g transform="translate(0.000000,2160.000000) scale(0.100000,-0.100000)"
fill="#000000" stroke="none">
<path d="M360 11213 c0 -2249 0 -2272 20 -2336 12 -39 38 -89 65 -124 24 -32
477 -491 1007 -1020 871 -869 967 -963 1006 -973 78 -20 158 13 192 81 20 38
20 69 20 2181 l-1 2143 -1154 1160 -1155 1159 0 -2271z"/>
<path d="M8368 12310 l-1158 -1158 0 -2119 c0 -1506 3 -2129 11 -2158 28 -101
142 -148 239 -100 34 18 1968 1955 2003 2007 15 23 37 71 47 107 20 65 20 98
18 2323 l-3 2257 -1157 -1159z"/>
<path d="M21640 13324 c-19 -2 -78 -9 -130 -15 -733 -82 -1407 -564 -1742
-1244 -105 -215 -176 -451 -209 -695 -19 -140 -16 -460 5 -600 59 -392 199
-730 430 -1040 85 -114 291 -328 401 -417 310 -250 659 -399 1065 -455 145
-19 539 -17 675 5 506 80 927 301 1288 676 375 390 567 834 607 1405 43 612
-185 1235 -616 1686 -355 371 -797 599 -1304 675 -102 15 -399 27 -470 19z
m327 -1210 c207 -42 357 -125 513 -283 153 -154 240 -315 288 -529 27 -120 23
-360 -7 -476 -50 -191 -136 -349 -264 -483 -217 -226 -509 -337 -802 -304
-246 28 -434 118 -605 290 -132 132 -214 271 -265 448 -109 375 -5 791 267
1063 152 152 308 232 553 283 52 11 252 6 322 -9z"/>
<path d="M35545 13319 c-419 -45 -825 -212 -1167 -479 -190 -149 -410 -399
-537 -611 -291 -487 -383 -1098 -251 -1666 163 -699 694 -1321 1346 -1576 412
-161 968 -192 1410 -78 447 115 842 364 1152 726 294 343 466 752 513 1219 16
164 7 448 -20 601 -170 966 -915 1699 -1881 1850 -126 20 -440 27 -565 14z
m468 -1218 c383 -102 674 -430 748 -841 17 -99 13 -300 -10 -405 -82 -389
-366 -693 -738 -792 -84 -22 -118 -26 -238 -26 -117 1 -156 5 -236 26 -463
121 -769 526 -769 1017 0 503 329 929 798 1031 117 25 331 21 445 -10z"/>
<path d="M14481 13288 c-370 -41 -686 -229 -901 -536 l-65 -93 -3 281 -2 280
-565 0 -565 0 0 -2135 0 -2135 595 0 595 0 0 1223 c0 1308 1 1320 50 1482 37
118 87 203 170 285 85 85 160 127 287 161 102 27 317 31 410 6 216 -57 321
-188 376 -467 20 -102 21 -142 24 -1397 l4 -1293 614 0 615 0 0 1208 c0 768 4
1238 10 1292 27 221 92 373 210 490 130 130 270 181 500 183 204 1 321 -37
421 -137 52 -52 107 -153 129 -236 44 -164 43 -141 47 -1502 l4 -1298 610 0
610 0 -3 1538 -3 1537 -24 125 c-60 325 -177 566 -366 756 -231 233 -529 354
-947 386 -537 40 -904 -112 -1356 -562 -62 -62 -114 -111 -116 -109 -1 2 -31
45 -65 95 -115 170 -283 328 -444 418 -238 134 -545 189 -856 154z"/>
<path d="M27120 13289 c-411 -45 -714 -213 -947 -523 -41 -56 -77 -103 -79
-105 -3 -3 -2 33 1 80 2 46 7 173 10 282 l5 197 -595 0 -595 0 0 -2135 0
-2135 615 0 615 0 0 1218 c0 1303 1 1315 50 1477 50 160 157 304 281 378 216
127 577 138 774 23 86 -51 163 -162 200 -290 49 -168 48 -137 52 -1513 l4
-1293 624 0 625 0 0 1480 c0 982 -4 1514 -11 1578 -70 640 -421 1083 -974
1230 -189 50 -467 72 -655 51z"/>
<path d="M29730 12665 l0 -555 871 -2 871 -3 -539 -700 c-297 -385 -689 -893
-871 -1130 l-332 -430 0 -447 0 -448 1595 0 1595 0 0 553 0 553 -785 0 c-432
-1 -785 0 -785 0 0 1 347 485 770 1075 l770 1073 0 508 0 508 -1580 0 -1580 0
0 -555z"/>
</g>
</svg>
