<?xml version="1.0" standalone="no"?>
<!DOCTYPE svg PUBLIC "-//W3C//DTD SVG 20010904//EN"
 "http://www.w3.org/TR/2001/REC-SVG-20010904/DTD/svg10.dtd">
<svg version="1.0" xmlns="http://www.w3.org/2000/svg"
 width="3432.000000pt" height="940.000000pt" viewBox="0 0 3432.000000 940.000000"
 preserveAspectRatio="xMidYMid meet">
<metadata>
Created by potrace 1.16, written by Peter Selinger 2001-2019
</metadata>
<g transform="translate(0.000000,940.000000) scale(0.100000,-0.100000)"
fill="#000000" stroke="none">
<path d="M4730 9254 c-410 -35 -767 -106 -1120 -224 -1156 -386 -2117 -1225
-2650 -2315 -249 -507 -396 -1031 -452 -1610 -18 -190 -15 -673 6 -865 61
-565 205 -1065 446 -1555 643 -1306 1880 -2236 3300 -2479 302 -52 411 -61
790 -61 382 0 477 7 765 55 1164 195 2201 831 2910 1785 1027 1380 1182 3252
398 4788 -297 582 -714 1092 -1231 1505 -139 111 -443 316 -597 402 -531 297
-1095 479 -1725 556 -128 15 -719 28 -840 18z m30 -2558 c1157 -100 2176 -371
3184 -848 263 -124 352 -175 407 -235 161 -177 153 -432 -20 -597 -69 -65
-138 -100 -232 -116 -104 -18 -156 -3 -389 109 -494 238 -891 393 -1350 526
-800 231 -1594 336 -2430 322 -513 -9 -937 -52 -1403 -142 -145 -28 -191 -30
-263 -11 -168 45 -294 182 -324 354 -30 170 74 369 234 447 136 67 849 171
1396 205 223 13 972 4 1190 -14z m-240 -1566 c1077 -73 2112 -361 2998 -833
155 -82 202 -124 245 -215 95 -201 -30 -436 -255 -482 -93 -18 -141 -3 -388
120 -1112 556 -2291 793 -3530 709 -285 -19 -510 -50 -858 -116 l-193 -37 -67
17 c-85 22 -161 74 -206 140 -142 210 -38 468 214 536 195 53 697 128 1000
151 80 5 163 12 185 13 99 8 724 6 855 -3z m110 -1424 c858 -92 1583 -310
2288 -688 163 -88 209 -124 244 -191 31 -59 32 -175 1 -232 -48 -91 -145 -149
-246 -148 -49 1 -71 8 -135 42 -171 93 -506 253 -651 311 -1019 409 -2146 505
-3217 275 -89 -19 -183 -35 -210 -35 -94 1 -186 63 -230 155 -58 123 -4 282
118 342 114 57 675 153 1073 182 180 14 793 5 965 -13z"/>
<path d="M25999 7259 c-121 -28 -242 -105 -312 -199 -132 -175 -140 -431 -18
-617 68 -104 166 -175 296 -216 105 -33 270 -30 382 7 155 51 275 163 334 313
31 80 39 255 14 339 -53 183 -197 320 -390 369 -64 16 -245 19 -306 4z"/>
<path d="M28531 7260 c-250 -32 -468 -138 -632 -307 -124 -129 -202 -259 -264
-446 -53 -161 -66 -254 -72 -519 l-5 -238 -294 0 c-253 0 -295 -2 -308 -16
-14 -13 -16 -61 -16 -373 0 -334 1 -359 18 -374 16 -15 53 -17 310 -17 l292 0
0 -1274 c0 -1145 2 -1276 16 -1290 14 -14 69 -16 460 -16 288 0 452 4 465 10
19 11 19 35 19 1290 l0 1280 367 -2 367 -3 531 -1154 532 -1154 -289 -634
c-158 -349 -288 -643 -288 -654 0 -12 10 -23 26 -29 29 -11 924 -12 963 -1 22
6 138 264 978 2171 524 1191 956 2175 959 2188 14 52 19 52 -475 52 -251 0
-462 -4 -469 -9 -8 -4 -207 -473 -444 -1042 -236 -569 -433 -1037 -437 -1041
-4 -5 -202 459 -440 1030 -238 570 -440 1043 -449 1050 -12 9 -173 12 -725 12
l-710 0 6 158 c4 89 13 183 22 216 80 305 410 442 770 322 60 -21 158 -62 216
-93 106 -56 139 -62 139 -26 0 19 -294 725 -317 761 -30 48 -237 125 -423 158
-109 19 -304 25 -399 14z"/>
<path d="M12980 7096 c-350 -45 -646 -149 -895 -313 -121 -81 -301 -256 -372
-363 -157 -235 -220 -460 -209 -745 13 -339 103 -563 305 -766 137 -137 279
-228 511 -327 164 -70 340 -128 723 -237 455 -129 601 -182 742 -270 194 -121
256 -279 203 -520 -38 -176 -181 -302 -398 -355 -471 -112 -1093 32 -1610 375
-126 84 -269 205 -353 299 -70 77 -107 96 -121 60 -3 -9 -6 -238 -6 -510 l0
-495 53 -56 c370 -391 1326 -641 2057 -537 881 125 1433 752 1361 1546 -44
482 -285 793 -812 1048 -183 88 -350 147 -774 275 -577 173 -718 227 -817 314
-70 62 -93 117 -92 221 0 111 30 178 123 271 113 113 273 182 493 215 163 24
427 15 596 -21 336 -70 668 -224 934 -432 45 -36 63 -44 89 -41 28 3 34 8 41
36 5 18 7 228 6 466 -3 500 10 444 -122 528 -230 147 -576 267 -936 323 -143
23 -576 29 -720 11z"/>
<path d="M23660 6074 c-415 -327 -763 -604 -772 -615 -16 -19 -18 -46 -18
-239 0 -185 2 -221 16 -234 13 -14 56 -16 314 -16 l299 0 4 -832 c4 -728 6
-844 21 -918 73 -370 241 -613 521 -753 180 -89 358 -122 625 -114 256 8 465
55 625 140 l60 32 3 354 c1 221 -1 358 -8 365 -6 6 -33 -2 -78 -22 -137 -64
-319 -93 -445 -73 -180 30 -290 133 -337 315 -19 76 -20 110 -20 793 l0 713
421 0 c271 0 427 4 440 10 18 10 19 25 19 378 0 273 -3 371 -12 380 -9 9 -120
12 -440 12 l-428 0 0 441 c0 284 -4 447 -10 460 -6 10 -18 19 -28 19 -9 -1
-357 -268 -772 -596z"/>
<path d="M20792 5819 c-651 -63 -1197 -434 -1456 -991 -255 -547 -207 -1237
121 -1730 277 -416 704 -678 1243 -764 133 -21 467 -24 595 -5 238 35 426 92
621 191 181 91 303 179 444 320 316 316 481 702 497 1165 14 395 -81 739 -291
1055 -99 150 -301 350 -456 453 -372 246 -833 353 -1318 306z m333 -830 c372
-44 652 -298 747 -676 32 -127 32 -360 0 -488 -48 -192 -164 -378 -304 -490
-78 -62 -220 -135 -313 -160 -93 -26 -313 -31 -415 -11 -235 48 -420 172 -550
368 -105 159 -152 329 -152 543 0 259 78 473 236 642 146 157 325 248 536 273
96 11 116 11 215 -1z"/>
<path d="M17290 5804 c-14 -2 -59 -9 -100 -15 -159 -23 -347 -99 -500 -202
-144 -97 -319 -286 -425 -458 l-45 -73 0 331 c0 288 -2 334 -16 347 -14 14
-69 16 -463 16 -334 0 -450 -3 -459 -12 -15 -15 -17 -4364 -2 -4388 8 -13 70
-15 459 -15 356 0 453 3 463 13 10 10 14 185 18 870 l5 856 38 -63 c92 -154
246 -327 382 -429 144 -107 348 -194 535 -228 142 -26 403 -24 537 5 621 131
1049 622 1179 1351 27 148 27 590 1 730 -41 223 -93 383 -182 560 -208 416
-573 700 -1007 785 -79 16 -363 29 -418 19z m143 -851 c114 -40 185 -83 266
-163 161 -157 245 -374 258 -660 22 -489 -204 -854 -589 -952 -123 -31 -290
-23 -411 19 -140 49 -235 112 -367 243 -164 162 -277 338 -365 568 l-28 73 18
57 c115 368 380 685 663 794 124 48 182 58 332 54 120 -2 145 -6 223 -33z"/>
<path d="M33230 5789 c-136 -18 -253 -84 -332 -186 -67 -90 -90 -157 -96 -282
-7 -174 32 -287 137 -392 196 -196 554 -196 750 0 94 95 141 212 141 356 0
327 -263 549 -600 504z m161 -99 c226 -43 369 -247 331 -472 -28 -160 -134
-279 -286 -323 -94 -27 -227 -17 -310 24 -146 72 -226 203 -226 374 0 121 54
238 143 310 57 47 98 66 171 82 76 17 109 18 177 5z"/>
<path d="M33120 5300 l0 -240 55 0 55 0 0 95 0 95 28 0 c22 -1 39 -17 97 -95
l70 -95 73 0 c39 0 72 3 72 6 0 5 -87 116 -138 176 -13 16 -11 19 27 34 57 23
81 59 81 124 0 45 -4 56 -33 85 -45 45 -89 55 -249 55 l-138 0 0 -240z m258
139 c33 -11 47 -35 36 -62 -8 -21 -64 -37 -131 -37 l-53 0 0 55 0 55 59 0 c32
0 72 -5 89 -11z"/>
<path d="M25682 5738 c-9 -9 -12 -394 -12 -1670 0 -1628 0 -1657 19 -1668 27
-14 895 -14 922 0 19 11 19 40 19 1668 0 1276 -3 1661 -12 1670 -17 17 -919
17 -936 0z"/>
</g>
</svg>
